<?xml version="1.0" encoding="UTF-8" standalone="no"?>
<!DOCTYPE svg PUBLIC "-//W3C//DTD SVG 1.1//EN" "http://www.w3.org/Graphics/SVG/1.1/DTD/svg11.dtd">
<svg width="100%" height="100%" viewBox="0 0 32 32" version="1.1" xmlns="http://www.w3.org/2000/svg" xmlns:xlink="http://www.w3.org/1999/xlink" xml:space="preserve" xmlns:serif="http://www.serif.com/" style="fill-rule:evenodd;clip-rule:evenodd;stroke-linejoin:round;stroke-miterlimit:2;">
    <g transform="matrix(1.04167,0,0,1.04167,-1.16667,-0.166667)">
        <path d="M16,4C9.383,4 4,9.383 4,16C4,22.617 9.383,28 16,28C22.617,28 28,22.617 28,16C28,9.383 22.617,4 16,4ZM16,6C21.535,6 26,10.465 26,16C26,21.535 21.535,26 16,26C10.465,26 6,21.535 6,16C6,10.465 10.465,6 16,6Z" style="fill-rule:nonzero;"/>
    </g>
    <g transform="matrix(0.625,0,0,0.625,5.5,6.5)">
        <path d="M21.75,4C20.078,4 18.492,4.66 17.313,5.844L15.844,7.313C14.66,8.496 14,10.078 14,11.75C14,12.543 14.152,13.316 14.438,14.031L16.063,12.406C15.859,11.109 16.254,9.715 17.25,8.719L18.719,7.25C19.523,6.445 20.613,6 21.75,6C22.887,6 23.945,6.445 24.75,7.25C26.41,8.91 26.41,11.621 24.75,13.281L23.281,14.75C22.477,15.555 21.387,16 20.25,16C20.027,16 19.809,15.977 19.594,15.938L17.969,17.563C18.684,17.848 19.457,18 20.25,18C21.922,18 23.508,17.34 24.688,16.156L26.156,14.688C27.34,13.504 28,11.922 28,10.25C28,8.578 27.34,7.027 26.156,5.844C24.977,4.66 23.422,4 21.75,4ZM19.281,11.281L11.281,19.281L12.719,20.719L20.719,12.719L19.281,11.281ZM11.75,14C10.078,14 8.492,14.66 7.313,15.844L5.844,17.313C4.66,18.496 4,20.078 4,21.75C4,23.422 4.66,24.973 5.844,26.156C7.023,27.34 8.578,28 10.25,28C11.922,28 13.508,27.34 14.688,26.156L16.156,24.688C17.34,23.504 18,21.922 18,20.25C18,19.457 17.848,18.684 17.563,17.969L15.938,19.594C16.141,20.891 15.746,22.285 14.75,23.281L13.281,24.75C12.477,25.555 11.387,26 10.25,26C9.113,26 8.055,25.555 7.25,24.75C5.59,23.09 5.59,20.379 7.25,18.719L8.719,17.25C9.523,16.445 10.613,16 11.75,16C11.973,16 12.191,16.023 12.406,16.063L14.031,14.438C13.316,14.152 12.543,14 11.75,14Z" style="fill-rule:nonzero;"/>
    </g>
</svg>
